<svg width="24" height="24" viewBox="0 0 24 24" fill="none" xmlns="http://www.w3.org/2000/svg">
<g clip-path="url(#clip0_308_15276)">
<path d="M19 5.99995H14.321C13.9224 5.71586 13.4744 5.50833 13 5.38795V4.99995L16.53 3.34794C16.6747 3.25826 16.7941 3.13312 16.8769 2.98437C16.9598 2.83562 17.0032 2.66819 17.0032 2.49794C17.0032 2.3277 16.9598 2.16027 16.8769 2.01152C16.7941 1.86277 16.6747 1.73763 16.53 1.64794L13.33 0.147945C13.0802 0.0311964 12.8049 -0.020539 12.5297 -0.00245953C12.2545 0.0156199 11.9883 0.102928 11.7559 0.251361C11.5235 0.399794 11.3323 0.60454 11.2002 0.846595C11.068 1.08865 10.9992 1.36017 11 1.63594V5.38795C10.5258 5.50816 10.0782 5.71571 9.68 5.99995H5C3.6744 6.00153 2.40356 6.52883 1.46622 7.46617C0.528882 8.4035 0.00158786 9.67435 0 10.9999L0 20.9999C0 21.7956 0.31607 22.5587 0.87868 23.1213C1.44129 23.6839 2.20435 23.9999 3 23.9999H21C21.7956 23.9999 22.5587 23.6839 23.1213 23.1213C23.6839 22.5587 24 21.7956 24 20.9999V10.9999C23.9984 9.67435 23.4711 8.4035 22.5338 7.46617C21.5964 6.52883 20.3256 6.00153 19 5.99995ZM21.816 9.99995H19.657C18.8618 9.99792 18.0995 9.68202 17.536 9.12095L16.414 7.99995H19C19.6183 8.00251 20.2206 8.19603 20.7247 8.55403C21.2288 8.91204 21.6099 9.41704 21.816 9.99995ZM5 7.99995H7.586L6.464 9.12095C5.90047 9.68202 5.13821 9.99792 4.343 9.99995H2.184C2.39008 9.41704 2.77123 8.91204 3.2753 8.55403C3.77937 8.19603 4.38174 8.00251 5 7.99995ZM13 21.9999H11V18.9999C11 18.7347 11.1054 18.4804 11.2929 18.2928C11.4804 18.1053 11.7348 17.9999 12 17.9999C12.2652 17.9999 12.5196 18.1053 12.7071 18.2928C12.8946 18.4804 13 18.7347 13 18.9999V21.9999ZM21 21.9999H15V18.9999C15 18.2043 14.6839 17.4412 14.1213 16.8786C13.5587 16.316 12.7956 15.9999 12 15.9999C11.2044 15.9999 10.4413 16.316 9.87868 16.8786C9.31607 17.4412 9 18.2043 9 18.9999V21.9999H3C2.73478 21.9999 2.48043 21.8946 2.29289 21.7071C2.10536 21.5195 2 21.2652 2 20.9999V11.9999H4.343C4.99982 12.0016 5.65043 11.8729 6.25721 11.6214C6.86398 11.37 7.41487 11.0007 7.878 10.5349L10.586 7.82795C10.9611 7.453 11.4697 7.24237 12 7.24237C12.5303 7.24237 13.0389 7.453 13.414 7.82795L16.122 10.5349C16.5851 11.0007 17.136 11.37 17.7428 11.6214C18.3496 11.8729 19.0002 12.0016 19.657 11.9999H22V20.9999C22 21.2652 21.8946 21.5195 21.7071 21.7071C21.5196 21.8946 21.2652 21.9999 21 21.9999ZM7 14.9999C7 15.2652 6.89464 15.5195 6.70711 15.7071C6.51957 15.8946 6.26522 15.9999 6 15.9999H5C4.73478 15.9999 4.48043 15.8946 4.29289 15.7071C4.10536 15.5195 4 15.2652 4 14.9999C4 14.7347 4.10536 14.4804 4.29289 14.2928C4.48043 14.1053 4.73478 13.9999 5 13.9999H6C6.26522 13.9999 6.51957 14.1053 6.70711 14.2928C6.89464 14.4804 7 14.7347 7 14.9999ZM7 18.9999C7 19.2652 6.89464 19.5195 6.70711 19.7071C6.51957 19.8946 6.26522 19.9999 6 19.9999H5C4.73478 19.9999 4.48043 19.8946 4.29289 19.7071C4.10536 19.5195 4 19.2652 4 18.9999C4 18.7347 4.10536 18.4804 4.29289 18.2928C4.48043 18.1053 4.73478 17.9999 5 17.9999H6C6.26522 17.9999 6.51957 18.1053 6.70711 18.2928C6.89464 18.4804 7 18.7347 7 18.9999ZM20 14.9999C20 15.2652 19.8946 15.5195 19.7071 15.7071C19.5196 15.8946 19.2652 15.9999 19 15.9999H18C17.7348 15.9999 17.4804 15.8946 17.2929 15.7071C17.1054 15.5195 17 15.2652 17 14.9999C17 14.7347 17.1054 14.4804 17.2929 14.2928C17.4804 14.1053 17.7348 13.9999 18 13.9999H19C19.2652 13.9999 19.5196 14.1053 19.7071 14.2928C19.8946 14.4804 20 14.7347 20 14.9999ZM20 18.9999C20 19.2652 19.8946 19.5195 19.7071 19.7071C19.5196 19.8946 19.2652 19.9999 19 19.9999H18C17.7348 19.9999 17.4804 19.8946 17.2929 19.7071C17.1054 19.5195 17 19.2652 17 18.9999C17 18.7347 17.1054 18.4804 17.2929 18.2928C17.4804 18.1053 17.7348 17.9999 18 17.9999H19C19.2652 17.9999 19.5196 18.1053 19.7071 18.2928C19.8946 18.4804 20 18.7347 20 18.9999ZM14 11.9999C14 12.3955 13.8827 12.7822 13.6629 13.1111C13.4432 13.44 13.1308 13.6963 12.7654 13.8477C12.3999 13.9991 11.9978 14.0387 11.6098 13.9615C11.2219 13.8843 10.8655 13.6939 10.5858 13.4142C10.3061 13.1345 10.1156 12.7781 10.0384 12.3901C9.96126 12.0022 10.0009 11.6 10.1522 11.2346C10.3036 10.8691 10.56 10.5568 10.8889 10.337C11.2178 10.1172 11.6044 9.99995 12 9.99995C12.5304 9.99995 13.0391 10.2107 13.4142 10.5857C13.7893 10.9608 14 11.4695 14 11.9999Z" fill="#C7B4DC"/>
</g>
<defs>
<clipPath id="clip0_308_15276">
<rect width="24" height="24" fill="white"/>
</clipPath>
</defs>
</svg>
