<svg width="26" height="19" viewBox="0 0 26 19" fill="none" xmlns="http://www.w3.org/2000/svg">
<path fill-rule="evenodd" clip-rule="evenodd" d="M18.4482 10.8184C20.0466 11.9034 21.1666 13.3734 21.1666 15.3334V18.8334H24.6666C25.3082 18.8334 25.8332 18.3084 25.8332 17.6667V15.3334C25.8332 12.79 21.6682 11.285 18.4482 10.8184Z" fill="white"/>
<path d="M9.49967 9.50008C12.077 9.50008 14.1663 7.41074 14.1663 4.83342C14.1663 2.25609 12.077 0.166748 9.49967 0.166748C6.92235 0.166748 4.83301 2.25609 4.83301 4.83342C4.83301 7.41074 6.92235 9.50008 9.49967 9.50008Z" fill="white"/>
<path fill-rule="evenodd" clip-rule="evenodd" d="M16.4999 9.50008C19.0782 9.50008 21.1666 7.41175 21.1666 4.83342C21.1666 2.25508 19.0782 0.166748 16.4999 0.166748C15.9516 0.166748 15.4382 0.283414 14.9482 0.446748C15.9166 1.64841 16.4999 3.17675 16.4999 4.83342C16.4999 6.49008 15.9166 8.01842 14.9482 9.22008C15.4382 9.38342 15.9516 9.50008 16.4999 9.50008Z" fill="white"/>
<path fill-rule="evenodd" clip-rule="evenodd" d="M9.49984 10.6667C6.38484 10.6667 0.166504 12.2301 0.166504 15.3334V17.6667C0.166504 18.3084 0.691504 18.8334 1.33317 18.8334H17.6665C18.3082 18.8334 18.8332 18.3084 18.8332 17.6667V15.3334C18.8332 12.2301 12.6148 10.6667 9.49984 10.6667Z" fill="white"/>
</svg>
